<?xml version="1.0" encoding="UTF-8"?>
<svg width="44px" height="44px" viewBox="0 0 44 44" version="1.1" xmlns="http://www.w3.org/2000/svg" xmlns:xlink="http://www.w3.org/1999/xlink">
    <!-- Generator: Sketch 58 (84663) - https://sketch.com -->
    <title>thinker</title>
    <desc>Created with Sketch.</desc>
    <g id="Main" stroke="none" stroke-width="1" fill="none" fill-rule="evenodd">
        <g id="menu-duration-alert" transform="translate(-143.000000, -19.000000)" fill-rule="nonzero">
            <g id="thinker" transform="translate(143.000000, 19.000000)">
                <path d="M22,44 C9.8497355,44 0,34.1502645 0,22 C0,9.8497355 9.8497355,-3.55271368e-15 22,-3.55271368e-15 C34.1502645,-3.55271368e-15 44,9.8497355 44,22 C43.9862228,34.1445532 34.1445532,43.9862228 22,44 Z" id="Path" fill="#FFD764"></path>
                <path d="M13,23 C11.7866133,23 10.6927044,22.2690735 10.2283614,21.1480503 C9.7640184,20.0270271 10.0206857,18.7366736 10.8786797,17.8786797 C11.7366736,17.0206857 13.0270271,16.7640184 14.1480503,17.2283614 C15.2690735,17.6927044 16,18.7866133 16,20 C16,21.6568542 14.6568542,23 13,23 L13,23 Z" id="Path" fill="#444444"></path>
                <path d="M31,23 C29.7866133,23 28.6927044,22.2690735 28.2283614,21.1480503 C27.7640184,20.0270271 28.0206857,18.7366736 28.8786797,17.8786797 C29.7366736,17.0206857 31.0270271,16.7640184 32.1480503,17.2283614 C33.2690735,17.6927044 34,18.7866133 34,20 C34,21.6568542 32.6568542,23 31,23 L31,23 Z" id="Path" fill="#444444"></path>
                <path d="M29,33.0000008 C28.7250819,33.0003542 28.4621436,32.8875114 28.273,32.688 C24.312,28.5 16.38,30.928 16.3,30.954 C15.7731203,31.1196854 15.2116854,30.8268797 15.046,30.3 C14.8803146,29.7731203 15.1731203,29.2116854 15.7,29.046 C16.073,28.928 24.912,26.229 29.727,31.312 C30.0020957,31.6021736 30.0778941,32.0283249 29.9197301,32.3955612 C29.7615661,32.7627975 29.3998476,33.0005158 29,33.0000008 Z" id="Path" fill="#444444"></path>
                <path d="M17,13.9720012 C16.7166215,13.9719256 16.4465802,13.8516246 16.257,13.641 C13.434,10.504 8.485,12.847 8.437,12.872 C8.11546097,13.0284823 7.73486432,13.0015389 7.43857714,12.8013191 C7.14228995,12.6010993 6.97532529,12.2580213 7.00057714,11.9013191 C7.02582898,11.544617 7.23946097,11.2284823 7.561,11.072 C7.817,10.946 13.908,8.041 17.743,12.301 C18.0085072,12.5943855 18.076052,13.0167342 17.9152876,13.3782919 C17.7545232,13.7398495 17.3956877,13.9726108 17,13.9720012 L17,13.9720012 Z" id="Path" fill="#444444"></path>
                <path d="M27,16.0000421 C26.6299888,15.9996982 26.2903854,15.7951087 26.1171654,15.4681481 C25.9439454,15.1411876 25.9654235,14.7453011 26.173,14.439 C26.3,14.252 29.355,9.856 36.173,11.014 C36.7175527,11.1067839 37.0837838,11.6234472 36.991,12.168 C36.8982161,12.7125527 36.3815528,13.0787838 35.837,12.986 C30.29,12.042 27.858,15.525 27.837,15.561 C27.6491207,15.8382663 27.3349117,16.0030665 27,16.0000421 Z" id="Path" fill="#444444"></path>
                <path d="M20,33 L7,33 L7,29 C7,27.8954305 6.1045695,27 5,27 C3.8954305,27 3,27.8954305 3,29 L3,39 C3.00330612,41.7600532 5.23994685,43.9966939 8,44 L12,44 C13.6568542,44 15,42.6568542 15,41 L15,37 L20,37 C21.1045695,37 22,36.1045695 22,35 C22,33.8954305 21.1045695,33 20,33 Z" id="Path" fill="#E2AC4B"></path>
            </g>
        </g>
    </g>
</svg>