<?xml version="1.0" encoding="UTF-8"?>
<svg width="24px" height="24px" viewBox="0 0 24 24" version="1.1" xmlns="http://www.w3.org/2000/svg" xmlns:xlink="http://www.w3.org/1999/xlink">
    <!-- Generator: Sketch 58 (84663) - https://sketch.com -->
    <title>Icon/Plus</title>
    <desc>Created with Sketch.</desc>
    <g id="Icon/Plus" stroke="none" stroke-width="1" fill="none" fill-rule="evenodd">
        <path d="M19,11 L13,11 L13,5 C13,4.4 12.6,4 12,4 C11.4,4 11,4.4 11,5 L11,11 L5,11 C4.4,11 4,11.4 4,12 C4,12.6 4.4,13 5,13 L11,13 L11,19 C11,19.6 11.4,20 12,20 C12.6,20 13,19.6 13,19 L13,13 L19,13 C19.6,13 20,12.6 20,12 C20,11.4 19.6,11 19,11 Z" id="Fill" fill="#1A202C" fill-rule="nonzero"></path>
    </g>
</svg>