<?xml version="1.0" encoding="UTF-8"?>
<svg width="46px" height="46px" viewBox="0 0 46 46" version="1.1" xmlns="http://www.w3.org/2000/svg" xmlns:xlink="http://www.w3.org/1999/xlink">
    <!-- Generator: Sketch 59 (86127) - https://sketch.com -->
    <title>drag-placeholder</title>
    <desc>Created with Sketch.</desc>
    <defs>
        <rect id="path-1" x="0" y="0" width="40" height="40" rx="4"></rect>
        <filter x="-11.2%" y="-11.2%" width="122.5%" height="122.5%" filterUnits="objectBoundingBox" id="filter-2">
            <feOffset dx="0" dy="1" in="SourceAlpha" result="shadowOffsetOuter1"></feOffset>
            <feGaussianBlur stdDeviation="0.5" in="shadowOffsetOuter1" result="shadowBlurOuter1"></feGaussianBlur>
            <feColorMatrix values="0 0 0 0 0   0 0 0 0 0   0 0 0 0 0  0 0 0 0.05 0" type="matrix" in="shadowBlurOuter1" result="shadowMatrixOuter1"></feColorMatrix>
            <feOffset dx="0" dy="0" in="SourceAlpha" result="shadowOffsetOuter2"></feOffset>
            <feGaussianBlur stdDeviation="1.5" in="shadowOffsetOuter2" result="shadowBlurOuter2"></feGaussianBlur>
            <feColorMatrix values="0 0 0 0 0   0 0 0 0 0   0 0 0 0 0  0 0 0 0.05 0" type="matrix" in="shadowBlurOuter2" result="shadowMatrixOuter2"></feColorMatrix>
            <feMerge>
                <feMergeNode in="shadowMatrixOuter1"></feMergeNode>
                <feMergeNode in="shadowMatrixOuter2"></feMergeNode>
            </feMerge>
        </filter>
    </defs>
    <g id="drag-placeholder" stroke="none" stroke-width="1" fill="none" fill-rule="evenodd">
        <g id="File" transform="translate(3.000000, 3.000000)" fill-rule="nonzero">
            <g id="Container">
                <use fill="black" fill-opacity="1" filter="url(#filter-2)" xlink:href="#path-1"></use>
                <use fill="#FFFFFF" xlink:href="#path-1"></use>
            </g>
            <g id="Icon/Image" transform="translate(8.000000, 8.000000)" fill="#718096">
                <path d="M14.979623,8.99978906 L15.106,9.006 C15.445,9.041 15.742,9.248 15.895,9.553 L15.895,9.553 L19.895,17.553 C20.049,17.862 20.034,18.23 19.851,18.525 C19.668,18.82 19.347,19 19,19 L19,19 L5,19 C4.64,19 4.307,18.807 4.13,18.493 C3.953,18.178 3.957,17.794 4.143,17.485 L4.143,17.485 L7.143,12.485 C7.283,12.251 7.514,12.084 7.781,12.024 C8.046,11.964 8.327,12.017 8.555,12.168 L8.555,12.168 L10.792,13.659 L14.22,9.375 C14.433,9.11 14.768,8.967 15.106,9.006 Z M10,5 C11.1045695,5 12,5.8954305 12,7 C12,8.1045695 11.1045695,9 10,9 C8.8954305,9 8,8.1045695 8,7 C8,5.8954305 8.8954305,5 10,5 Z" id="Fill"></path>
            </g>
        </g>
    </g>
</svg>