<?xml version="1.0" encoding="UTF-8"?>
<svg width="80px" height="80px" viewBox="0 0 80 80" version="1.1" xmlns="http://www.w3.org/2000/svg" xmlns:xlink="http://www.w3.org/1999/xlink">
    <!-- Generator: Sketch 58 (84663) - https://sketch.com -->
    <title>square</title>
    <desc>Created with Sketch.</desc>
    <defs>
        <rect id="path-1" x="0" y="0" width="80" height="80"></rect>
    </defs>
    <g id="Symbols" stroke="none" stroke-width="1" fill="none" fill-rule="evenodd">
        <g id="Format/Square" transform="translate(-24.000000, -8.000000)">
            <g id="square" transform="translate(24.000000, 8.000000)">
                <mask id="mask-2" fill="white">
                    <use xlink:href="#path-1"></use>
                </mask>
                <use id="Mask" fill="#EDF2F7" fill-rule="nonzero" xlink:href="#path-1"></use>
                <g id="Group-7" mask="url(#mask-2)" fill-rule="nonzero">
                    <g transform="translate(-8.000000, -4.000000)">
                        <path d="M76.4072231,41.0823505 C79.0907443,30.9451637 79.4601767,23.5405486 77.5155203,18.8685052 C74.5985359,11.8604402 66.0917384,2.28235281 60.3203843,2.28235281 C54.5490302,2.28235281 49.4346419,4.54015803 46.3817818,9.16252838 C44.3465417,12.2441086 42.5800646,18.2735412 41.0823505,27.2508261 L76.4072231,41.0823505 Z" id="hat" fill="#718096"></path>
                        <path d="M88.5808105,51.3529381 C84.3649518,44.5504898 79.3703497,39.5621263 73.597004,36.3878474 C64.9369856,31.6264291 57.6580262,31.2272764 50.6991225,21.29248 C46.0598533,14.6692824 40.952302,9.47374969 35.3764685,5.70588201 L53.8216586,39.5380273 L88.5808105,51.3529381 Z" id="hat" fill="#A0AEC0"></path>
                        <path d="M48.0542122,68.3777615 C29.070126,69.426348 11.4031627,61.581386 3.68141924,45.3207631 C-1.46640975,34.4803479 -1.21547642,24.2730875 4.43421925,14.6989817 L4.43421925,-3.55271368e-14 L27.2471637,3.13287299 C33.8342562,3.80895873 39.2683118,6.91381711 43.5493306,12.4474482 C49.9708587,20.7478947 49.556209,28.9152719 64.6740185,36.2534169 C79.791828,43.5915618 84.3036389,45.3197826 89.1511055,52.5593162 C92.3827499,57.3856719 91.9594154,60.0253011 87.881102,60.4782039 C84.3951982,59.8508635 80.1796845,60.1652808 75.2345608,61.4214555 C67.8168754,63.3057177 67.0382983,67.3291749 48.0542122,68.3777615 Z" id="hat" fill="#718096"></path>
                        <path d="M89.0117594,77.8889443 C86.3920637,73.1975922 83.615946,69.9527155 80.6834063,68.1543141 C76.2845967,65.4567121 69.377449,67.2260348 67.5825068,67.2260348 C65.7875646,67.2260348 61.7049509,67.5783336 60.5630704,66.3324262 C59.42119,65.0865188 58.2525708,61.3546195 59.9117611,59.5674022 C61.017888,58.3759241 53.039038,54.1162008 35.9752111,46.7882325 C34.1465637,52.8089999 33.23224,57.4496507 33.23224,60.7101852 C33.23224,65.6009868 33.4674316,69.3554852 32.1110295,70.8726067 C30.7546275,72.3897282 26.4764864,75.5984431 21.1860715,77.8889443 C17.6591283,79.4159451 12.4990651,80.9429459 5.70588201,82.4699467 L5.70588201,86.7294066 L89.0117594,86.7294066 L89.0117594,77.8889443 Z" id="neck" fill="#CBD5E0"></path>
                        <path d="M59.9117611,59.5674022 C55.470128,61.1462756 51.2858145,60.9390845 47.3588207,58.9458289 C41.46833,55.9559455 39.749513,53.5493058 38.107658,51.7162423 C37.013088,50.4942 35.7222994,48.0907458 34.2352921,44.5058797 C33.2443889,49.0600126 32.903084,52.8102183 33.2113776,55.756497 C33.6738178,60.1759149 34.1102013,62.3121794 36.7583987,63.0308268 C39.4065961,63.7494741 39.9345899,62.3121794 42.1828834,63.0308268 C44.431177,63.7494741 47.1937502,67.3294078 51.2128114,67.3294078 C53.8921856,67.3294078 56.7918355,66.1563772 59.9117611,63.8103162 L59.9117611,59.5674022 Z" id="chin-shadow" fill="#718096"></path>
                        <path d="M40.1623658,28.5294101 C38.5132433,30.3756041 37.4400253,32.0557019 36.9427118,33.5697034 C36.1967415,35.8407058 33.340962,41.8289628 34.5148575,47.2337917 C35.6887529,52.6386206 41.2761861,57.4628209 44.6983729,58.8665199 C48.1205598,60.2702188 51.5882448,61.6235257 55.068519,61.6235257 C58.5487933,61.6235257 62.834119,57.4500636 64.2531742,55.6151119 C65.6722294,53.7801602 68.4705842,51.4739876 68.4705842,48.4465607 C68.4705842,45.4191339 63.6303362,44.3029304 55.068519,39.8032018 C49.3606409,36.8033828 44.3919232,33.0454522 40.1623658,28.5294101 Z" id="jaw" fill="#CBD5E0"></path>
                        <path d="M37.6588213,34.9459226 C37.6588213,31.7559032 34.5948527,31.1137325 32.7659127,33.0298275 C30.9369727,34.9459226 30.2295758,39.2635735 31.347551,41.6796127 C32.4655263,44.0956519 33.0468131,44.5058797 35.0959999,44.5058797 C37.1451866,44.5058797 37.6588213,38.135942 37.6588213,34.9459226 Z" id="ear" fill="#CBD5E0"></path>
                        <path d="M57.0588201,51.3529381 C56.9568178,48.7203406 56.5679813,46.891449 55.8923106,45.8662633 C54.8788045,44.3284848 53.7121533,44.0040048 52.841167,44.0040048 C52.6215443,43.4401084 52.0424324,42.5284391 50.5204732,42.2648452 C48.998514,42.0012513 46.5327502,43.0310071 44.5058797,44.4375784 C45.2099789,46.2355602 46.566751,47.1979433 49.5674601,49.027916 C51.5679328,50.2478978 54.0650529,51.0229052 57.0588201,51.3529381 Z" id="lips" fill="#718096"></path>
                        <path d="M54.7764673,47.9294089 C53.8237913,46.7222736 52.8698164,45.8401325 51.9145427,45.2829857 C50.4816321,44.4472656 48.8183936,44.3618708 47.9294089,44.6688723 C48.7955917,45.2829857 50.414381,45.7268827 51.3529381,46.2946428 C51.9786429,46.6731496 53.1198193,47.2180716 54.7764673,47.9294089 Z" id="teeth" fill="#F7FAFC"></path>
                    </g>
                </g>
            </g>
        </g>
    </g>
</svg>