<?xml version="1.0" encoding="UTF-8"?>
<svg width="200px" height="113px" viewBox="0 0 200 113" version="1.1" xmlns="http://www.w3.org/2000/svg" xmlns:xlink="http://www.w3.org/1999/xlink">
    <!-- Generator: sketchtool 59 (101010) - https://sketch.com -->
    <title>17BEE3F3-42FD-43FA-983F-05B41F6F77CC</title>
    <desc>Created with sketchtool.</desc>
    <g id="editor-text" stroke="none" stroke-width="1" fill="none" fill-rule="evenodd">
        <g id="text---templates" transform="translate(-94.000000, -382.000000)" fill-rule="nonzero">
            <g id="Stacked-Group" transform="translate(94.000000, 229.000000)">
                <g id="Stacked-Group-3" transform="translate(0.000000, 153.000000)">
                    <g id="Stacked-Group-4">
                        <g id="User-feedback">
                            <rect id="Rectangle" fill="#9F7AEA" x="0" y="0" width="200" height="113"></rect>
                            <path d="M118.450286,65 C126.500571,67.6194098 132,73.6020688 132,81.3097049 L132,81.3097049 L132,95 L68,95 L68,81.3097049 C68,73.6020688 73.4994286,67.6194098 81.5497143,65 C86.4274286,69.4447825 92.8914286,72.1828415 100,72.1828415 C107.108571,72.1828415 113.572571,69.4447825 118.450286,65 Z M99.5,21 C109.70275,21 118,29.372 118,39.6666667 L118,39.6666667 L118,44.3333333 C118,54.628 109.70275,63 99.5,63 C89.29725,63 81,54.628 81,44.3333333 L81,44.3333333 L81,39.6666667 C81,29.372 89.29725,21 99.5,21 Z" id="Combined-Shape" fill="#FFFFFF"></path>
                        </g>
                    </g>
                </g>
            </g>
        </g>
    </g>
</svg>