<?xml version="1.0" encoding="UTF-8"?>
<svg width="200px" height="113px" viewBox="0 0 200 113" version="1.1" xmlns="http://www.w3.org/2000/svg" xmlns:xlink="http://www.w3.org/1999/xlink">
    <!-- Generator: sketchtool 59 (101010) - https://sketch.com -->
    <title>31437C90-F4BC-4D0B-B6B9-3480A5441237</title>
    <desc>Created with sketchtool.</desc>
    <g id="editor-text" stroke="none" stroke-width="1" fill="none" fill-rule="evenodd">
        <g id="text---templates" transform="translate(-326.000000, -382.000000)" fill-rule="nonzero">
            <g id="Stacked-Group" transform="translate(94.000000, 229.000000)">
                <g id="Stacked-Group-3" transform="translate(0.000000, 153.000000)">
                    <g id="Stacked-Group-8" transform="translate(232.000000, 0.000000)">
                        <g id="Customer-Rating">
                            <rect id="Rectangle" fill="#9F7AEA" x="0" y="0" width="200" height="113"></rect>
                            <g id="Group-3" transform="translate(40.000000, 37.000000)">
                                <g id="Group" transform="translate(80.000000, 0.000000)">
                                    <rect id="Rectangle" fill="#FFFFFF" x="0" y="0" width="40" height="40"></rect>
                                    <g id="Icon/Image" fill="#9F7AEA">
                                        <path d="M25.0233044,14.9997181 L25.1766678,15.0099998 C25.7416679,15.0683331 26.2366679,15.4133331 26.4916679,15.9216664 L26.4916679,15.9216664 L33.158335,29.2549993 C33.4150016,29.7699993 33.3900016,30.3833326 33.0850016,30.8749992 C32.7800016,31.3666659 32.2450016,31.6666659 31.6666682,31.6666659 L31.6666682,31.6666659 L8.33333351,31.6666659 C7.73333347,31.6666659 7.17833344,31.3449992 6.88333343,30.8216659 C6.58833341,30.2966659 6.59500007,29.6566659 6.90500009,29.141666 L6.90500009,29.141666 L11.9050004,20.8083329 C12.1383337,20.4183329 12.5233338,20.1399996 12.9683338,20.0399996 C13.4100005,19.9399996 13.8783338,20.028333 14.2583339,20.2799996 L14.2583339,20.2799996 L17.9866674,22.7649995 L23.7000011,15.6249998 C24.0550011,15.1833331 24.6133345,14.9449998 25.1766678,15.0099998 Z M16.6666667,8.33333333 C18.5076158,8.33333333 20,9.8257175 20,11.6666667 C20,13.5076158 18.5076158,15 16.6666667,15 C14.8257175,15 13.3333333,13.5076158 13.3333333,11.6666667 C13.3333333,9.8257175 14.8257175,8.33333333 16.6666667,8.33333333 Z" id="Fill"></path>
                                    </g>
                                </g>
                                <path d="M40,32 L40,40 L0,40 L0,32 L40,32 Z M56,16 L56,24 L0,24 L0,16 L56,16 Z M48,0 L48,8 L0,8 L0,0 L48,0 Z" id="Combined-Shape" fill="#FFFFFF"></path>
                            </g>
                        </g>
                    </g>
                </g>
            </g>
        </g>
    </g>
</svg>