<?xml version="1.0" encoding="UTF-8"?>
<svg width="200px" height="113px" viewBox="0 0 200 113" version="1.1" xmlns="http://www.w3.org/2000/svg" xmlns:xlink="http://www.w3.org/1999/xlink">
    <!-- Generator: sketchtool 59 (101010) - https://sketch.com -->
    <title>4355E303-1A91-4330-A701-2969B088357F</title>
    <desc>Created with sketchtool.</desc>
    <g id="editor-text" stroke="none" stroke-width="1" fill="none" fill-rule="evenodd">
        <g id="text---templates" transform="translate(-94.000000, -229.000000)" fill-rule="nonzero">
            <g id="Stacked-Group" transform="translate(94.000000, 229.000000)">
                <g id="Stacked-Group-6">
                    <g id="Stacked-Group">
                        <g id="Brand-Credits">
                            <rect id="Rectangle" fill="#9F7AEA" x="0" y="0" width="200" height="113"></rect>
                            <path d="M142,38 L142,77 L60,77 L60,38 L142,38 Z M94.1375,52.5585938 C92.5578046,52.5585938 91.3449261,53.0097611 90.4988281,53.9121094 C89.6527301,54.8144576 89.2296875,56.1210852 89.2296875,57.8320312 C89.2296875,59.5429773 89.6515583,60.8554642 90.4953125,61.7695312 C91.3390667,62.6835983 92.5484296,63.140625 94.1234375,63.140625 C95.6984454,63.140625 96.9078083,62.6835983 97.7515625,61.7695312 C98.5953167,60.8554642 99.0171875,59.5476648 99.0171875,57.8460938 C99.0171875,56.1398352 98.5988323,54.8320358 97.7621094,53.9226563 C96.9253864,53.0132767 95.7171954,52.5585938 94.1375,52.5585938 Z M106.0625,52.5726563 C104.379679,52.5726563 103.063677,53.0367141 102.114453,53.9648438 C101.16523,54.8929734 100.690625,56.1867105 100.690625,57.8460938 C100.690625,59.5523523 101.099605,60.8613236 101.917578,61.7730469 C102.735551,62.6847702 103.920305,63.140625 105.471875,63.140625 C106.081253,63.140625 106.677731,63.0972661 107.261328,63.0105469 C107.844925,62.9238277 108.467184,62.7726573 109.128125,62.5570313 L109.128125,62.5570313 L109.128125,57.2273438 L105.05,57.2273438 L105.05,59.0414063 L106.997656,59.0414063 L106.997656,61.1859375 C106.528904,61.279688 106.06719,61.3265625 105.6125,61.3265625 C104.740621,61.3265625 104.076174,61.0324248 103.619141,60.4441406 C103.162107,59.8558564 102.933594,59.0039118 102.933594,57.8882812 C102.933594,56.8195259 103.217185,55.9687532 103.784375,55.3359375 C104.351565,54.7031218 105.106245,54.3867188 106.048438,54.3867188 C106.859379,54.3867188 107.63984,54.5742169 108.389844,54.9492188 L108.389844,54.9492188 L109.114063,53.2054688 C108.13437,52.7835916 107.117193,52.5726563 106.0625,52.5726563 Z M116.025781,52.5585938 C114.446086,52.5585938 113.233207,53.0097611 112.387109,53.9121094 C111.541011,54.8144576 111.117969,56.1210852 111.117969,57.8320312 C111.117969,59.5429773 111.53984,60.8554642 112.383594,61.7695312 C113.227348,62.6835983 114.436711,63.140625 116.011719,63.140625 C117.586727,63.140625 118.79609,62.6835983 119.639844,61.7695312 C120.483598,60.8554642 120.905469,59.5476648 120.905469,57.8460938 C120.905469,56.1398352 120.487114,54.8320358 119.650391,53.9226563 C118.813668,53.0132767 117.605477,52.5585938 116.025781,52.5585938 Z M83.73125,52.7203125 L81.5515625,52.7203125 L81.5515625,63 L87.9007813,63 L87.9007813,61.2 L83.73125,61.2 L83.73125,52.7203125 Z M94.1375,54.3726562 C95.8671961,54.3726562 96.7320313,55.5304572 96.7320313,57.8460938 C96.7320313,60.1570428 95.8625087,61.3125 94.1234375,61.3125 C93.2562457,61.3125 92.6046897,61.0218779 92.16875,60.440625 C91.7328103,59.8593721 91.5148438,58.994537 91.5148438,57.8460938 C91.5148438,56.6976505 91.735154,55.8316435 92.1757813,55.2480469 C92.6164085,54.6644502 93.2703082,54.3726562 94.1375,54.3726562 Z M116.025781,54.3726562 C117.755477,54.3726562 118.620313,55.5304572 118.620313,57.8460938 C118.620313,60.1570428 117.75079,61.3125 116.011719,61.3125 C115.144527,61.3125 114.492971,61.0218779 114.057031,60.440625 C113.621092,59.8593721 113.403125,58.994537 113.403125,57.8460938 C113.403125,56.6976505 113.623435,55.8316435 114.064063,55.2480469 C114.50469,54.6644502 115.158589,54.3726562 116.025781,54.3726562 Z" id="Combined-Shape" fill="#FFFFFF"></path>
                        </g>
                    </g>
                </g>
            </g>
        </g>
    </g>
</svg>