<?xml version="1.0" encoding="UTF-8"?>
<svg width="200px" height="113px" viewBox="0 0 200 113" version="1.1" xmlns="http://www.w3.org/2000/svg" xmlns:xlink="http://www.w3.org/1999/xlink">
    <!-- Generator: sketchtool 59 (101010) - https://sketch.com -->
    <title>26F20E9A-CF22-49D5-92CB-0A6CCA445DC8</title>
    <desc>Created with sketchtool.</desc>
    <g id="editor-text" stroke="none" stroke-width="1" fill="none" fill-rule="evenodd">
        <g id="text---templates" transform="translate(-326.000000, -229.000000)" fill-rule="nonzero">
            <g id="Stacked-Group" transform="translate(94.000000, 229.000000)">
                <g id="Stacked-Group-6">
                    <g id="Stacked-Group-2" transform="translate(232.000000, 0.000000)">
                        <g id="Customer-Rating">
                            <rect id="Rectangle" fill="#9F7AEA" x="0" y="0" width="200" height="113"></rect>
                            <path d="M46.4,45 L49.7503759,51.7886031 L57.2420443,52.8772063 L51.8210221,58.1613969 L53.1007519,65.6227937 L46.4,62.1 L39.6992481,65.6227937 L40.9789779,58.1613969 L35.5579557,52.8772063 L43.0496241,51.7886031 L46.4,45 Z M74,45 L77.3503759,51.7886031 L84.8420443,52.8772063 L79.4210221,58.1613969 L80.7007519,65.6227937 L74,62.1 L67.2992481,65.6227937 L68.5789779,58.1613969 L63.1579557,52.8772063 L70.6496241,51.7886031 L74,45 Z M101.6,45 L104.950376,51.7886031 L112.442044,52.8772063 L107.021022,58.1613969 L108.300752,65.6227937 L101.6,62.1 L94.8992481,65.6227937 L96.1789779,58.1613969 L90.7579557,52.8772063 L98.2496241,51.7886031 L101.6,45 Z M129.2,45 L132.550376,51.7886031 L140.042044,52.8772063 L134.621022,58.1613969 L135.900752,65.6227937 L129.2,62.1 L122.499248,65.6227937 L123.778978,58.1613969 L118.357956,52.8772063 L125.849624,51.7886031 L129.2,45 Z M156.8,45 L160.150376,51.7886031 L167.642044,52.8772063 L162.221022,58.1613969 L163.500752,65.6227937 L156.8,62.1 L150.099248,65.6227937 L151.378978,58.1613969 L145.957956,52.8772063 L153.449624,51.7886031 L156.8,45 Z" id="Combined-Shape" fill="#FFFFFF"></path>
                        </g>
                    </g>
                </g>
            </g>
        </g>
    </g>
</svg>