<?xml version="1.0" encoding="UTF-8"?>
<svg width="24px" height="24px" viewBox="0 0 24 24" version="1.1" xmlns="http://www.w3.org/2000/svg" xmlns:xlink="http://www.w3.org/1999/xlink">
    <!-- Generator: Sketch 58 (84663) - https://sketch.com -->
    <title>Icon/Alert</title>
    <desc>Created with Sketch.</desc>
    <g id="Icon/Alert" stroke="none" stroke-width="1" fill="none" fill-rule="evenodd">
        <path d="M19.216,17.529 L12.882,5.654 C12.506,4.948 11.494,4.948 11.117,5.654 L4.784,17.529 C4.429,18.195 4.912,19 5.667,19 L18.334,19 C19.088,19 19.571,18.195 19.216,17.529 Z M12,17 C11.448,17 11,16.552 11,16 C11,15.448 11.448,15 12,15 C12.552,15 13,15.448 13,16 C13,16.552 12.552,17 12,17 Z M13,14 L11,14 L11,10 L13,10 L13,14 Z" id="Fill" fill="#f00" fill-rule="nonzero"></path>
    </g>
</svg>