<?xml version="1.0" encoding="UTF-8"?>
<svg width="24px" height="24px" viewBox="0 0 24 24" version="1.1" xmlns="http://www.w3.org/2000/svg" xmlns:xlink="http://www.w3.org/1999/xlink">
    <!-- Generator: Sketch 59 (86127) - https://sketch.com -->
    <title>Icon/Check - Off</title>
    <desc>Created with Sketch.</desc>
    <g id="Icon/Check---Off" stroke="none" stroke-width="1" fill="none" fill-rule="evenodd">
        <path d="M6.5638852,4 L17.4361148,4 C18.3276335,4 18.6509198,4.09282561 18.9768457,4.2671327 C19.3027716,4.4414398 19.5585602,4.69722837 19.7328673,5.0231543 C19.9071744,5.34908022 20,5.67236646 20,6.5638852 L20,17.4361148 C20,18.3276335 19.9071744,18.6509198 19.7328673,18.9768457 C19.5585602,19.3027716 19.3027716,19.5585602 18.9768457,19.7328673 C18.6509198,19.9071744 18.3276335,20 17.4361148,20 L6.5638852,20 C5.67236646,20 5.34908022,19.9071744 5.0231543,19.7328673 C4.69722837,19.5585602 4.4414398,19.3027716 4.2671327,18.9768457 C4.09282561,18.6509198 4,18.3276335 4,17.4361148 L4,6.5638852 C4,5.67236646 4.09282561,5.34908022 4.2671327,5.0231543 C4.4414398,4.69722837 4.69722837,4.4414398 5.0231543,4.2671327 C5.34908022,4.09282561 5.67236646,4 6.5638852,4 Z M7.2819426,6 C6.83618323,6 6.67454011,6.04641281 6.51157715,6.13356635 C6.34861419,6.2207199 6.2207199,6.34861419 6.13356635,6.51157715 C6.04641281,6.67454011 6,6.83618323 6,7.2819426 L6,16.7180574 C6,17.1638168 6.04641281,17.3254599 6.13356635,17.4884229 C6.2207199,17.6513858 6.34861419,17.7792801 6.51157715,17.8664336 C6.67454011,17.9535872 6.83618323,18 7.2819426,18 L16.7180574,18 C17.1638168,18 17.3254599,17.9535872 17.4884229,17.8664336 C17.6513858,17.7792801 17.7792801,17.6513858 17.8664336,17.4884229 C17.9535872,17.3254599 18,17.1638168 18,16.7180574 L18,7.2819426 C18,6.83618323 17.9535872,6.67454011 17.8664336,6.51157715 C17.7792801,6.34861419 17.6513858,6.2207199 17.4884229,6.13356635 C17.3254599,6.04641281 17.1638168,6 16.7180574,6 L7.2819426,6 Z" id="Fill" fill="#1A202C" fill-rule="nonzero"></path>
    </g>
</svg>