<?xml version="1.0" encoding="UTF-8"?>
<svg width="24px" height="24px" viewBox="0 0 24 24" version="1.1" xmlns="http://www.w3.org/2000/svg" xmlns:xlink="http://www.w3.org/1999/xlink">
    <!-- Generator: Sketch 58 (84663) - https://sketch.com -->
    <title>Icon/Grid</title>
    <desc>Created with Sketch.</desc>
    <g id="Icon/Grid" stroke="none" stroke-width="1" fill="none" fill-rule="evenodd">
        <path d="M8,16 L8,20 L4,20 L4,16 L8,16 Z M14,16 L14,20 L10,20 L10,16 L14,16 Z M20,16 L20,20 L16,20 L16,16 L20,16 Z M8,10 L8,14 L4,14 L4,10 L8,10 Z M14,10 L14,14 L10,14 L10,10 L14,10 Z M20,10 L20,14 L16,14 L16,10 L20,10 Z M8,4 L8,8 L4,8 L4,4 L8,4 Z M14,4 L14,8 L10,8 L10,4 L14,4 Z M20,4 L20,8 L16,8 L16,4 L20,4 Z" id="Fill" fill="#1A202C" fill-rule="nonzero"></path>
    </g>
</svg>