<?xml version="1.0" encoding="UTF-8"?>
<svg width="24px" height="24px" viewBox="0 0 24 24" version="1.1" xmlns="http://www.w3.org/2000/svg" xmlns:xlink="http://www.w3.org/1999/xlink">
    <!-- Generator: Sketch 58 (84663) - https://sketch.com -->
    <title>Icon/App/Instagram</title>
    <desc>Created with Sketch.</desc>
    <g id="Icon/App/Instagram" stroke="none" stroke-width="1" fill="none" fill-rule="evenodd">
        <path d="M16,4 C18.056,4 20,5.944 20,8 L20,16 C20,18.056 18.056,20 16,20 L8,20 C5.944,20 4,18.056 4,16 L4,8 C4,5.944 5.944,4 8,4 L16,4 Z M16,6 L8,6 C7.065,6 6,7.065 6,8 L6,16 C6,16.953 7.047,18 8,18 L16,18 C16.935,18 18,16.935 18,16 L18,8 C18,7.065 16.935,6 16,6 Z M12,8 C14.206,8 16,9.794 16,12 C16,14.206 14.206,16 12,16 C9.794,16 8,14.206 8,12 C8,9.794 9.794,8 12,8 Z M12,10 C10.897,10 10,10.897 10,12 C10,13.103 10.897,14 12,14 C13.103,14 14,13.103 14,12 C14,10.897 13.103,10 12,10 Z M16.145,6.932 C16.6751934,6.932 17.105,7.36180664 17.105,7.892 C17.105,8.42219336 16.6751934,8.852 16.145,8.852 C15.6148066,8.852 15.185,8.42219336 15.185,7.892 C15.185,7.36180664 15.6148066,6.932 16.145,6.932 Z" id="Fill" fill="#1A202C" fill-rule="nonzero"></path>
    </g>
</svg>