<?xml version="1.0" encoding="UTF-8"?>
<svg width="16px" height="16px" viewBox="0 0 16 16" version="1.1" xmlns="http://www.w3.org/2000/svg" xmlns:xlink="http://www.w3.org/1999/xlink">
    <!-- Generator: Sketch 59 (86127) - https://sketch.com -->
    <title>Icon-layout</title>
    <desc>Created with Sketch.</desc>
    <g id="Symbols" stroke="none" stroke-width="1" fill="none" fill-rule="evenodd">
        <g id="Icon/layout" transform="translate(-4.000000, -4.000000)" fill="#1A202C" fill-rule="nonzero">
            <path d="M10,15 C10.552,15 11,15.448 11,16 L11,19 C11,19.552 10.552,20 10,20 L5,20 C4.448,20 4,19.552 4,19 L4,16 C4,15.448 4.448,15 5,15 L10,15 Z M19,12 C19.552,12 20,12.448 20,13 L20,19 C20,19.552 19.552,20 19,20 L14,20 C13.448,20 13,19.552 13,19 L13,13 C13,12.448 13.448,12 14,12 L19,12 Z M10,4 C10.552,4 11,4.448 11,5 L11,12 C11,12.552 10.552,13 10,13 L5,13 C4.448,13 4,12.552 4,12 L4,5 C4,4.448 4.448,4 5,4 L10,4 Z M19,4 C19.552,4 20,4.448 20,5 L20,9 C20,9.552 19.552,10 19,10 L14,10 C13.448,10 13,9.552 13,9 L13,5 C13,4.448 13.448,4 14,4 L19,4 Z" id="Combined-Shape"></path>
        </g>
    </g>
</svg>