<?xml version="1.0" encoding="UTF-8"?>
<svg width="24px" height="24px" viewBox="0 0 24 24" version="1.1" xmlns="http://www.w3.org/2000/svg" xmlns:xlink="http://www.w3.org/1999/xlink">
    <!-- Generator: Sketch 58 (84663) - https://sketch.com -->
    <title>Icon/Overflow2</title>
    <desc>Created with Sketch.</desc>
    <g id="Icon/Overflow2" stroke="none" stroke-width="1" fill="none" fill-rule="evenodd">
        <path d="M14,12 C14,13.1045695 13.1045695,14 12,14 C10.8954305,14 10,13.1045695 10,12 C10,10.8954305 10.8954305,10 12,10 C13.1045695,10 14,10.8954305 14,12 Z M14,18 C14,19.1045695 13.1045695,20 12,20 C10.8954305,20 10,19.1045695 10,18 C10,16.8954305 10.8954305,16 12,16 C13.1045695,16 14,16.8954305 14,18 Z M14,6 C14,7.1045695 13.1045695,8 12,8 C10.8954305,8 10,7.1045695 10,6 C10,4.8954305 10.8954305,4 12,4 C13.1045695,4 14,4.8954305 14,6 Z" id="Fill" fill="#A0AEC0" fill-rule="nonzero" transform="translate(12.000000, 12.000000) rotate(-270.000000) translate(-12.000000, -12.000000) "></path>
    </g>
</svg>
