<?xml version="1.0" encoding="UTF-8"?>
<svg width="24px" height="24px" viewBox="0 0 24 24" version="1.1" xmlns="http://www.w3.org/2000/svg" xmlns:xlink="http://www.w3.org/1999/xlink">
    <!-- Generator: Sketch 58 (84663) - https://sketch.com -->
    <title>Icon/Media</title>
    <desc>Created with Sketch.</desc>
    <g id="Icon/Media" stroke="none" stroke-width="1" fill="none" fill-rule="evenodd">
        <path d="M22,1 L2,1 C1.44771525,1 1,1.44771525 1,2 L1,22 C1,22.5522847 1.44771525,23 2,23 L22,23 C22.5522847,23 23,22.5522847 23,22 L23,2 C23,1.44771525 22.5522847,1 22,1 Z M9.5,6 C10.3284271,6 11,6.67157288 11,7.5 C11,8.32842712 10.3284271,9 9.5,9 C8.67157288,9 8,8.32842712 8,7.5 C8,6.67157288 8.67157288,6 9.5,6 Z M5,17 L8,12 L11,15 L15,9 L19,17 L5,17 Z" id="Shape" fill="#718096" fill-rule="nonzero"></path>
    </g>
</svg>