<?xml version="1.0" encoding="UTF-8"?>
<svg width="24px" height="24px" viewBox="0 0 24 24" version="1.1" xmlns="http://www.w3.org/2000/svg" xmlns:xlink="http://www.w3.org/1999/xlink">
    <!-- Generator: Sketch 58 (84663) - https://sketch.com -->
    <title>Icon/Delete</title>
    <desc>Created with Sketch.</desc>
    <g id="Icon/Delete" stroke="none" stroke-width="1" fill="none" fill-rule="evenodd">
        <path d="M18,10 L18,18 C18,19.1 17.1,20 16,20 L16,20 L8,20 C6.9,20 6,19.1 6,18 L6,18 L6,10 L18,10 Z M15,4 C15.6,4 16,4.4 16,5 L16,5 L16,7 L20,7 L20,9 L4,9 L4,7 L8,7 L8,5 C8,4.4 8.4,4 9,4 L9,4 Z M14,6 L10,6 L10,7 L14,7 L14,6 Z" id="Fill" fill="#A0AEC0" fill-rule="nonzero"></path>
    </g>
</svg>
