<?xml version="1.0" encoding="UTF-8"?>
<svg width="24px" height="24px" viewBox="0 0 24 24" version="1.1" xmlns="http://www.w3.org/2000/svg" xmlns:xlink="http://www.w3.org/1999/xlink">
    <!-- Generator: Sketch 58 (84663) - https://sketch.com -->
    <title>Icon/Upload</title>
    <desc>Created with Sketch.</desc>
    <g id="Icon/Upload" stroke="none" stroke-width="1" fill="none" fill-rule="evenodd">
        <path d="M17,10.6 C17,10.6 17,10.5 17,10.5 C17,7.7 14.8,5.5 12,5.5 C9.5,5.5 7.4,7.3 7.1,9.8 C5.3,10.4 4,12 4,14 C4,16.5 6,18.5 8.5,18.5 C10.2,18.5 14.4,18.5 16,18.5 C18.2,18.5 20,16.7 20,14.5 C20,12.6 18.7,11.1 17,10.6 Z M13,13.5 L13,16.5 L11,16.5 L11,13.5 L8,13.5 L12,9.5 L16,13.5 L13,13.5 Z" id="Fill" fill="#1A202C" fill-rule="nonzero"></path>
    </g>
</svg>