<?xml version="1.0" encoding="UTF-8"?>
<svg width="24px" height="24px" viewBox="0 0 24 24" version="1.1" xmlns="http://www.w3.org/2000/svg" xmlns:xlink="http://www.w3.org/1999/xlink">
    <!-- Generator: Sketch 58 (84663) - https://sketch.com -->
    <title>Icon/Mail</title>
    <desc>Created with Sketch.</desc>
    <g id="Icon/Mail" stroke="none" stroke-width="1" fill="none" fill-rule="evenodd">
        <path d="M20,9.7 L20,18 C20,18.6 19.6,19 19,19 L19,19 L5,19 C4.4,19 4,18.6 4,18 L4,18 L4,9.7 L11.5,13.9 C11.78,14.04 12.22,14.04 12.5,13.9 L12.5,13.9 L20,9.7 Z M19,5 C19.6,5 20,5.4 20,6 L20,6 L20,7.5 L12,11.9 L4,7.4 L4,6 C4,5.4 4.4,5 5,5 L5,5 Z" id="Fill" fill="#FFF" fill-rule="nonzero"></path>
    </g>
</svg>
