<?xml version="1.0" encoding="UTF-8"?>
<svg width="24px" height="24px" viewBox="0 0 24 24" version="1.1" xmlns="http://www.w3.org/2000/svg" xmlns:xlink="http://www.w3.org/1999/xlink">
    <!-- Generator: Sketch 58 (84663) - https://sketch.com -->
    <title>Icon/Spark</title>
    <desc>Created with Sketch.</desc>
    <g id="Icon/Spark" stroke="none" stroke-width="1" fill="none" fill-rule="evenodd">
        <path d="M6,13 C8.76005315,13.0033061 10.9966939,15.2399468 11,18 C11,18.5522847 11.4477153,19 12,19 C12.5522847,19 13,18.5522847 13,18 C13.0033061,15.2399468 15.2399468,13.0033061 18,13 C18.5522847,13 19,12.5522847 19,12 C19,11.4477153 18.5522847,11 18,11 C15.2399468,10.9966939 13.0033061,8.76005315 13,6 C13,5.44771525 12.5522847,5 12,5 C11.4477153,5 11,5.44771525 11,6 C10.9966939,8.76005315 8.76005315,10.9966939 6,11 C5.44771525,11 5,11.4477153 5,12 C5,12.5522847 5.44771525,13 6,13 Z" id="Path" fill="#1A202C" fill-rule="nonzero"></path>
    </g>
</svg>