<?xml version="1.0" encoding="UTF-8"?>
<svg width="106px" height="24px" viewBox="0 0 106 24" version="1.1" xmlns="http://www.w3.org/2000/svg" xmlns:xlink="http://www.w3.org/1999/xlink">
    <!-- Generator: Sketch 58 (84663) - https://sketch.com -->
    <title>Brand/Default</title>
    <desc>Created with Sketch.</desc>
    <g id="Brand/Default" stroke="none" stroke-width="1" fill="none" fill-rule="evenodd">
        <g id="Group-6" transform="translate(0.000000, 3.000000)" fill-rule="nonzero">
            <circle id="Oval" fill="#9F7AEA" cx="9" cy="9" r="9"></circle>
            <path d="M0,9 C4.96553859,9 8.99185328,4.97870439 8.99998765,0.0150695734 L9,1.88293825e-13 C9,4.8818027 12.8868137,8.85579142 17.7346377,8.99616289 L18,9 C13.1181973,9 9.14420858,12.8868137 9.00383711,17.7346377 L9,17.984 L8.99616289,17.7346377 C8.85579142,12.8868137 4.8818027,9 0,9 Z" id="Combined-Shape" fill="#FFFFFF"></path>
        </g>
        <path d="M25.5,14.475 L27.7734375,14.475 C27.8359378,14.96719 28.0605449,15.3578111 28.4472656,15.646875 C28.8339863,15.9359389 29.347653,16.0804688 29.9882812,16.0804688 C30.5664091,16.0804688 31.0429669,15.9613293 31.4179688,15.7230469 C31.7929706,15.4847644 31.9804688,15.1585958 31.9804688,14.7445313 C31.9804688,14.4085921 31.8339858,14.129298 31.5410156,13.9066406 C31.2480454,13.6839833 30.8750023,13.5218755 30.421875,13.4203125 L28.9101562,13.0570313 C27.7460879,12.7445297 26.9199243,12.2894561 26.4316406,11.6917969 C25.9433569,11.0941376 25.7343746,10.3343796 25.8046875,9.4125 C25.8750004,8.5921834 26.3027304,7.89492475 27.0878906,7.32070313 C27.8730508,6.7464815 28.7851511,6.459375 29.8242188,6.459375 C30.3398463,6.459375 30.8261696,6.52187438 31.2832031,6.646875 C31.7402367,6.77187563 32.1621074,6.96132686 32.5488281,7.21523438 C32.9355488,7.46914189 33.2499988,7.81484156 33.4921875,8.25234375 C33.7343762,8.68984594 33.8710936,9.19765336 33.9023438,9.77578125 L31.546875,9.77578125 C31.5,9.37734176 31.3222672,9.07656352 31.0136719,8.8734375 C30.7050766,8.67031148 30.3398459,8.56875 29.9179688,8.56875 C29.5976546,8.56875 29.2812516,8.62734316 28.96875,8.74453125 C28.6562484,8.86171934 28.445313,9.01406156 28.3359375,9.2015625 C28.1484366,9.5218766 28.1132807,9.85781074 28.2304688,10.209375 C28.3476568,10.5609393 28.8046835,10.8460927 29.6015625,11.0648438 L31.3359375,11.4984375 C31.9140654,11.6390632 32.4042949,11.8363269 32.8066406,12.0902344 C33.2089864,12.3441419 33.5097646,12.6292953 33.7089844,12.9457031 C33.9082041,13.262111 34.0488277,13.5667954 34.1308594,13.8597656 C34.212891,14.1527358 34.2539062,14.4554672 34.2539062,14.7679688 C34.2539062,15.8226615 33.8398479,16.6488251 33.0117188,17.2464844 C32.1835896,17.8441436 31.1093816,18.1429688 29.7890625,18.1429688 C29.0781214,18.1429688 28.4043001,18.0042983 27.7675781,17.7269531 C27.1308562,17.449608 26.5976584,17.0257841 26.1679688,16.4554688 C25.7382791,15.8851534 25.5156251,15.2250038 25.5,14.475 Z M44.1601562,6.459375 C45.1679738,6.459375 46.0937458,6.69960697 46.9375,7.18007813 C47.7812542,7.66054928 48.4570287,8.34999551 48.9648438,9.2484375 C49.4726588,10.1468795 49.7265625,11.1703068 49.7265625,12.31875 C49.7265625,13.1937544 49.5781265,13.9984338 49.28125,14.7328125 C48.9843735,15.4671912 48.5820338,16.0824194 48.0742188,16.5785156 C47.5664037,17.0746119 46.9765659,17.459375 46.3046875,17.7328125 C45.6328091,18.0062514 44.9179725,18.1429688 44.1601562,18.1429688 C43.3632773,18.1429688 42.6210972,17.9847672 41.9335938,17.6683594 C41.2460903,17.3519515 40.7382829,16.896878 40.4101562,16.303125 L40.4101562,23.3578125 L37.9375,23.3578125 L37.9375,6.70546875 L40.4101562,6.70546875 L40.4101562,8.3578125 C40.7460954,7.77187207 41.2617153,7.30898607 41.9570312,6.96914063 C42.6523472,6.62929518 43.3867149,6.459375 44.1601562,6.459375 Z M43.84375,8.86171875 C42.8906202,8.86171875 42.0839877,9.18202805 41.4238281,9.82265625 C40.7636686,10.4632845 40.4335938,11.3109322 40.4335938,12.365625 C40.4335938,13.0687535 40.6015608,13.6859348 40.9375,14.2171875 C41.2734392,14.7484402 41.69531,15.1410144 42.203125,15.3949219 C42.71094,15.6488294 43.2578096,15.7757813 43.84375,15.7757813 C44.7968798,15.7757813 45.5956999,15.4613313 46.2402344,14.8324219 C46.8847688,14.2035125 47.2070312,13.3812551 47.2070312,12.365625 C47.2070312,11.3343698 46.8847688,10.4925814 46.2402344,9.84023438 C45.5956999,9.18788736 44.7968798,8.86171875 43.84375,8.86171875 Z M58.4492188,6.459375 C59.19141,6.459375 59.9160121,6.61367033 60.6230469,6.92226563 C61.3300817,7.23086092 61.8632795,7.68593449 62.2226562,8.2875 L62.2226562,6.70546875 L64.671875,6.70546875 L64.671875,17.9085938 L62.2226562,17.9085938 L62.2226562,16.303125 C61.871092,16.8812529 61.3398473,17.3324203 60.6289062,17.6566406 C59.9179652,17.980861 59.19141,18.1429688 58.4492188,18.1429688 C57.6914025,18.1429688 56.9687534,18.0042983 56.28125,17.7269531 C55.5937466,17.449608 54.990237,17.0628931 54.4707031,16.5667969 C53.9511693,16.0707006 53.5371109,15.4515662 53.2285156,14.709375 C52.9199203,13.9671838 52.765625,13.1625043 52.765625,12.2953125 C52.765625,11.1390567 53.0292942,10.1117232 53.5566406,9.21328125 C54.083987,8.31483926 54.7773395,7.63125234 55.6367188,7.1625 C56.496098,6.69374766 57.4335887,6.459375 58.4492188,6.459375 Z M58.7421875,8.86171875 C57.7812452,8.86171875 56.9687533,9.17812184 56.3046875,9.8109375 C55.6406217,10.4437532 55.3085938,11.2640575 55.3085938,12.271875 C55.3085938,13.2875051 55.6425748,14.1214811 56.3105469,14.7738281 C56.978519,15.4261751 57.7890577,15.7523438 58.7421875,15.7523438 C59.7031298,15.7523438 60.5195279,15.4378938 61.1914062,14.8089844 C61.8632846,14.180075 62.1992188,13.3343803 62.1992188,12.271875 C62.1992188,11.2328073 61.8496129,10.4046906 61.1503906,9.7875 C60.4511684,9.17030941 59.648442,8.86171875 58.7421875,8.86171875 Z M69.1171875,17.9085938 L69.1171875,6.70546875 L71.5898438,6.70546875 L71.5898438,9.271875 C72.1289089,7.39686563 73.1562424,6.459375 74.671875,6.459375 C75.062502,6.459375 75.4453106,6.50234332 75.8203125,6.58828125 C76.1953144,6.67421918 76.4765616,6.77578066 76.6640625,6.89296875 L76.2539062,9.178125 C75.7460912,8.92031121 75.1914093,8.79140625 74.5898438,8.79140625 C73.5742137,8.79140625 72.820315,9.24843293 72.328125,10.1625 C71.835935,11.0765671 71.5898438,12.3148359 71.5898438,13.8773438 L71.5898438,17.9085938 L69.1171875,17.9085938 Z M79.6914062,17.9085938 L79.6914062,0.6 L82.140625,0.6 L82.140625,10.396875 L85.6914062,6.70546875 L89.0078125,6.70546875 L84.2382812,11.56875 L90.0859375,17.9085938 L86.921875,17.9085938 L82.140625,12.7054688 L82.140625,17.9085938 L79.6914062,17.9085938 Z M97.1328125,6.459375 C97.8750037,6.459375 98.5996058,6.61367033 99.3066406,6.92226563 C100.013675,7.23086092 100.546873,7.68593449 100.90625,8.2875 L100.90625,6.70546875 L103.355469,6.70546875 L103.355469,17.9085938 L100.90625,17.9085938 L100.90625,16.303125 C100.554686,16.8812529 100.023441,17.3324203 99.3125,17.6566406 C98.6015589,17.980861 97.8750037,18.1429688 97.1328125,18.1429688 C96.3749962,18.1429688 95.6523472,18.0042983 94.9648438,17.7269531 C94.2773403,17.449608 93.6738307,17.0628931 93.1542969,16.5667969 C92.634763,16.0707006 92.2207047,15.4515662 91.9121094,14.709375 C91.6035141,13.9671838 91.4492188,13.1625043 91.4492188,12.2953125 C91.4492188,11.1390567 91.712888,10.1117232 92.2402344,9.21328125 C92.7675808,8.31483926 93.4609332,7.63125234 94.3203125,7.1625 C95.1796918,6.69374766 96.1171824,6.459375 97.1328125,6.459375 Z M97.4257812,8.86171875 C96.4648389,8.86171875 95.6523471,9.17812184 94.9882812,9.8109375 C94.3242154,10.4437532 93.9921875,11.2640575 93.9921875,12.271875 C93.9921875,13.2875051 94.3261685,14.1214811 94.9941406,14.7738281 C95.6621127,15.4261751 96.4726515,15.7523438 97.4257812,15.7523438 C98.3867236,15.7523438 99.2031216,15.4378938 99.875,14.8089844 C100.546878,14.180075 100.882812,13.3343803 100.882812,12.271875 C100.882812,11.2328073 100.533207,10.4046906 99.8339844,9.7875 C99.1347621,9.17030941 98.3320358,8.86171875 97.4257812,8.86171875 Z" id="sparka" fill="#fff" fill-rule="nonzero"></path>
    </g>
</svg>
