<?xml version="1.0" encoding="UTF-8"?>
<svg width="24px" height="24px" viewBox="0 0 24 24" version="1.1" xmlns="http://www.w3.org/2000/svg" xmlns:xlink="http://www.w3.org/1999/xlink">
    <!-- Generator: Sketch 58 (84663) - https://sketch.com -->
    <title>Icon/App/Youtube</title>
    <desc>Created with Sketch.</desc>
    <g id="Icon/App/Youtube" stroke="none" stroke-width="1" fill="none" fill-rule="evenodd">
        <path d="M19.8,8.8 C19.6,7.5 19,6.6 17.6,6.4 C15.4,6 12,6 12,6 C12,6 8.6,6 6.4,6.4 C5,6.6 4.3,7.5 4.2,8.8 C4,10.1 4,12 4,12 C4,12 4,13.9 4.2,15.2 C4.4,16.5 5,17.4 6.4,17.6 C8.6,18 12,18 12,18 C12,18 15.4,18 17.6,17.6 C19,17.3 19.6,16.5 19.8,15.2 C20,13.9 20,12 20,12 C20,12 20,10.1 19.8,8.8 Z M10,15 L10,9 L15,12 L10,15 Z" id="Fill" fill="#1A202C" fill-rule="nonzero"></path>
    </g>
</svg>