<?xml version="1.0" encoding="UTF-8"?>
<svg width="24px" height="24px" viewBox="0 0 24 24" version="1.1" xmlns="http://www.w3.org/2000/svg" xmlns:xlink="http://www.w3.org/1999/xlink">
    <!-- Generator: Sketch 58 (84663) - https://sketch.com -->
    <title>Icon/Format</title>
    <desc>Created with Sketch.</desc>
    <g id="Icon/Format" stroke="none" stroke-width="1" fill="none" fill-rule="evenodd">
        <path d="M23,16 L23,22 C23,22.5128358 22.6139598,22.9355072 22.1166211,22.9932723 L22,23 L16,23 L16,21 L21,21 L21,16 L23,16 Z M3,16 L3,21 L8,21 L8,23 L2,23 C1.48716416,23 1.06449284,22.6139598 1.00672773,22.1166211 L1,22 L1,16 L3,16 Z M16,8 C16.5522847,8 17,8.44771525 17,9 L17,15 C17,15.5522847 16.5522847,16 16,16 L8,16 C7.44771525,16 7,15.5522847 7,15 L7,9 C7,8.44771525 7.44771525,8 8,8 L16,8 Z M8,1 L8,3 L3,3 L3,8 L1,8 L1,2 C1,1.48716416 1.38604019,1.06449284 1.88337887,1.00672773 L2,1 L8,1 Z M22,1 C22.5128358,1 22.9355072,1.38604019 22.9932723,1.88337887 L23,2 L23,8 L21,8 L21,3 L16,3 L16,1 L22,1 Z" id="Combined-Shape" fill="#718096" fill-rule="nonzero"></path>
    </g>
</svg>
