<?xml version="1.0" encoding="UTF-8"?>
<svg width="24px" height="24px" viewBox="0 0 24 24" version="1.1" xmlns="http://www.w3.org/2000/svg" xmlns:xlink="http://www.w3.org/1999/xlink">
    <!-- Generator: Sketch 58 (84663) - https://sketch.com -->
    <title>Icon/Text</title>
    <desc>Created with Sketch.</desc>
    <g id="Icon/Text" stroke="none" stroke-width="1" fill="none" fill-rule="evenodd">
        <path d="M12,18 C12.552,18 13,18.447 13,19 C13,19.553 12.552,20 12,20 L1,20 C0.448,20 0,19.553 0,19 C0,18.447 0.448,18 1,18 L12,18 Z M23,11 C23.552,11 24,11.447 24,12 C24,12.553 23.552,13 23,13 L1,13 C0.448,13 0,12.553 0,12 C0,11.447 0.448,11 1,11 L23,11 Z M23,4 C23.552,4 24,4.447 24,5 C24,5.553 23.552,6 23,6 L1,6 C0.448,6 0,5.553 0,5 C0,4.447 0.448,4 1,4 L23,4 Z" id="Combined-Shape" fill="#718096" fill-rule="nonzero"></path>
    </g>
</svg>
